<?xml version="1.0" standalone="no"?>
<!DOCTYPE svg PUBLIC "-//W3C//DTD SVG 20010904//EN"
 "http://www.w3.org/TR/2001/REC-SVG-20010904/DTD/svg10.dtd">
<svg version="1.0" xmlns="http://www.w3.org/2000/svg"
 width="512.000000pt" height="512.000000pt" viewBox="0 0 512.000000 512.000000"
 preserveAspectRatio="xMidYMid meet">
<metadata>
Created by potrace 1.14, written by Peter Selinger 2001-2017
</metadata>
<g transform="translate(0.000000,512.000000) scale(0.100000,-0.100000)"
fill="#000000" stroke="none">
<path d="M2352 5110 c-33 -14 -54 -72 -52 -144 1 -33 1 -149 1 -257 l-1 -196
-32 -7 c-18 -4 -44 -10 -58 -12 -38 -7 -192 -61 -252 -87 -29 -13 -84 -43
-123 -67 -229 -141 -397 -334 -479 -551 -106 -282 -69 -649 87 -879 58 -85
187 -218 267 -276 90 -65 119 -84 126 -84 4 0 15 -6 23 -14 49 -44 364 -186
731 -331 108 -43 295 -135 368 -182 126 -80 205 -199 208 -314 4 -120 -34
-226 -110 -302 -63 -64 -199 -140 -276 -153 -14 -3 -38 -8 -55 -13 -16 -4 -77
-8 -135 -9 -166 -1 -342 40 -528 124 -55 25 -214 119 -248 147 -171 140 -167
138 -207 133 -50 -7 -46 -4 -113 -93 -32 -43 -70 -92 -84 -109 -14 -17 -33
-42 -42 -55 -9 -13 -44 -59 -78 -103 -80 -105 -81 -125 -2 -205 96 -97 280
-226 427 -298 159 -79 441 -166 567 -176 20 -1 20 -1 19 -334 -1 -123 2 -190
11 -208 23 -50 48 -55 283 -55 l217 0 29 29 29 29 0 266 0 266 28 6 c342 75
556 200 759 444 101 122 183 303 218 480 16 84 17 327 2 393 -40 179 -111 327
-204 427 -69 74 -186 173 -268 225 -69 44 -411 215 -430 215 -5 0 -324 123
-360 139 -11 5 -49 21 -85 36 -205 87 -302 146 -401 244 -86 86 -108 141 -106
261 3 105 32 175 106 253 63 66 182 129 298 155 84 20 290 24 373 8 188 -36
371 -119 555 -251 106 -76 168 -80 197 -13 7 15 16 28 20 28 5 0 8 4 8 8 0 5
30 62 66 128 163 292 165 296 129 350 -18 28 -147 126 -232 178 -173 104 -413
186 -615 211 l-57 7 -3 274 c-3 269 -3 274 -26 296 -22 22 -28 23 -245 25
-123 1 -232 -2 -245 -7z"/>
</g>
</svg>
